<?xml version="1.0" encoding="UTF-8"?><svg id="Ebene_1" xmlns="http://www.w3.org/2000/svg" viewBox="0 0 627.17 399.5"><defs><style>.cls-1{fill:#0081c6;}.cls-1,.cls-2,.cls-3{stroke-width:0px;}.cls-2{fill:#1d1d1b;}.cls-3{fill:#fff;}</style></defs><polygon class="cls-2" points="224.61 0 0 399.49 0 399.5 627.17 399.5 627.17 0 224.61 0 224.61 0"/><path class="cls-3" d="M582.03,371l-39.56-198.58h-21.74l-112.63,198.58h37.76l22.32-39.26h73.17l7.71,39.26h32.98ZM535.53,302.59h-50.83l37.53-66.25,13.3,66.25h0Z"/><polygon class="cls-3" points="353.14 371 332.95 371 293.27 172.42 331.37 172.42 355.79 295.35 425.54 172.42 465.79 172.42 353.14 371 353.14 371"/><path class="cls-3" d="M253.89,214.78c-10.97-8.43-21.4-12.3-31.91-12.31-18.64-.02-30.07,6.26-29.98,22.23.03,5.95,4.98,13.47,16.17,22.86l19.76,16.81c6.12,5.26,10.61,9.34,12.97,11.75,2.36,2.41,5.02,6.02,7.64,10.31,2.62,4.29,4.77,9.06,6.08,13.44,1.32,4.42,2.02,9.2,2.02,13.98,0,18.51-7.26,32.65-20.43,42.55-13.21,9.96-30.75,15.21-52.18,15.2-17.19,0-33.08-3.14-51.08-12.07l12.28-37.38c13.88,11,27.7,14.32,41.67,14.38,9.39.04,16.29-1.93,22.24-5.58,6.21-3.96,8.63-9.56,8.63-15.64,0-6.42-4.9-13.97-16.11-22.75l-20.57-16.4c-6.31-5.09-10.59-8.74-12.82-11.02-2.23-2.28-4.75-5.49-7.2-9.57-2.45-4.08-4.61-8.5-5.83-12.8-1.28-4.51-2.13-9.1-2.11-14.44.06-18.77,6.31-32.98,17.95-43.24,12.18-10.98,28.68-16.59,47.71-16.59,6.31,0,14.39.2,24.2,1.64,7.1,1.02,15.47,2.76,22.87,6.03l-11.95,38.62h0Z"/><polygon class="cls-1" points="0 0 0 399.49 224.61 0 0 0 0 0"/></svg>